<?xml version="1.0" encoding="utf-8"?>
<!-- Generator: Adobe Illustrator 24.0.2, SVG Export Plug-In . SVG Version: 6.00 Build 0)  -->
<svg version="1.1" xmlns="http://www.w3.org/2000/svg" xmlns:xlink="http://www.w3.org/1999/xlink" x="0px" y="0px"
	 viewBox="0 0 51.84 51.84" style="enable-background:new 0 0 51.84 51.84;" xml:space="preserve">
<style type="text/css">
	.st0{display:none;}
	.st1{display:inline;}
	.st2{fill:none;stroke:#000000;stroke-linecap:round;stroke-linejoin:round;stroke-miterlimit:10;}
</style>
<g id="Outlines_Only" class="st0">
	<g class="st1">
		<path class="st2" d="M47.63,10.87c0.22,0.16,0.63,0.96,0.76,1.15c0.11,0.17,1,0.44,1.12,0.48c0.26,0.09,0.55,0.85,0.71,1.1
			c0.24,0.39-0.99,2.92-1.1,3.34c-0.07,0.25-0.03,0.54-0.11,0.78c-0.05,0.14-0.57,0.92-0.63,1.14c-0.09,0.3,0.07,0.33,0.1,0.59
			c0.04,0.35-0.54,1.21-0.76,1.36c-0.1,0.07-0.91,1.91-0.95,1.99c-0.05,0.1-0.25,1.57-0.28,1.84c-0.01,0.12-0.02,0.4,0.29,0.42
			c0.2,0.01,1.49,0.4,1.6,0.62c0.2,0.37-0.38,0.62-0.44,0.8c-0.07,0.24,0.1,1.59,0.06,1.65c-0.08,0.14-0.15,0.09-0.23,0.25
			c-0.08,0.17,0.74,14.93,0.61,15.08c-0.08,0.1-13.7,0.46-16.96,0.48c-2.96,0.01-5.96,0.08-8.92,0.01
			c-2.56-0.06-14.91-0.34-16.18-0.39"/>
		<path class="st2" d="M4.31,43.44c-0.06-0.04-0.94-1.66-1.03-2c-0.12-0.46-0.18-1.07-0.14-1.6c0.04-0.57,0.46-1.11,0.24-1.71
			c-0.05-0.14-0.81-1.43-0.79-1.68C2.62,36.2,3.81,33.42,3.78,33c-0.01-0.22-0.14-0.24-0.04-0.42c0.07-0.12,0.21-0.12,0.3-0.22
			c0.38-0.4,2.03-8.68,2.04-8.74c0.01-0.08,0.04-2.91,0.14-3.23c0.18-0.56,0.69-2.72,0.71-2.97c0.02-0.21,0.46-3.73,0.35-4.28
			c-0.04-0.21-0.23-1.8-0.22-1.86c0.01-0.16,0.38-0.47,0.39-0.68c0.03-0.41-0.56-1.56-0.47-1.68C7.14,8.78,7.77,9.6,7.92,9.55
			C8.15,9.46,7.81,9.38,7.9,9.28C7.94,9.23,9.01,9.2,9.19,9.12c0.08-0.03,0.55-0.47,0.85-0.42c0.39,0.07,0.72,1.08,1.02,1.06
			c0.32-0.02,1.83,0.24,2.11,0.48c0.43,0.37,0.91,2.71,0.91,2.87c0,0.27-0.18,0.53,0,0.77c0.18,0.23,2.31,0.86,2.42,0.92
			c0.4,0.2,2.6-1.09,2.81-1.17c0.31-0.11,3.57,0.18,3.65,0.26c0.09,0.09,0.33,0.59,0.5,0.49c0.09-0.05,2.91-1.22,3.28-1.02
			c0.4,0.22,0.33,0.39,0.87,0.32c0.17-0.02,3.62-1.2,3.95-1.27c0.33-0.06,0.66-0.6,0.82-0.61c0.14-0.01,0.25,0.14,0.39,0.14
			c0.17,0.01,1.06-0.26,1.32-0.28c0.37-0.02,0.63,0.14,1-0.04c0.27-0.13,0.5-0.41,0.75-0.5c0.25-0.09,6.88-0.21,10.04-0.29"/>
	</g>
</g>
<g id="Fills_Only">
	<g>
		<path d="M25.58,44.5c-1.04,0-2.07-0.01-3.1-0.03l-3.71-0.09c-4.6-0.11-11.54-0.27-12.48-0.31c-0.28-0.01-0.5-0.25-0.49-0.53
			c0.01-0.28,0.25-0.51,0.53-0.48c0.93,0.04,7.87,0.2,12.46,0.31l3.71,0.09c2.17,0.05,4.4,0.03,6.55,0.01
			c0.78-0.01,1.57-0.02,2.35-0.02c3.17-0.02,14.2-0.31,16.47-0.43c-0.02-1.27-0.21-5.25-0.36-8.26c-0.31-6.38-0.3-6.39-0.21-6.58
			c0.06-0.11,0.12-0.19,0.18-0.24c-0.01-0.09-0.02-0.19-0.02-0.31c-0.06-0.78-0.07-1.08-0.01-1.28c0.06-0.2,0.2-0.32,0.33-0.44
			c-0.33-0.14-0.87-0.31-1.04-0.34c-0.28-0.01-0.47-0.15-0.57-0.26c-0.15-0.18-0.22-0.41-0.19-0.71c0-0.02,0.2-1.78,0.33-2.03
			c0.01-0.03,0.06-0.13,0.13-0.29c0.79-1.76,0.84-1.79,0.99-1.9c0.15-0.12,0.51-0.71,0.54-0.9c0,0,0,0.01-0.02-0.04
			c-0.06-0.12-0.17-0.36-0.06-0.73c0.05-0.17,0.2-0.43,0.44-0.82c0.09-0.15,0.18-0.29,0.21-0.36c0.01-0.04,0.02-0.15,0.03-0.26
			c0.01-0.14,0.02-0.3,0.06-0.47c0.04-0.14,0.14-0.38,0.33-0.83c0.23-0.55,0.76-1.81,0.79-2.19c-0.04-0.07-0.08-0.16-0.13-0.26
			c-0.08-0.15-0.23-0.46-0.32-0.57l-0.03-0.01c-0.84-0.28-1.14-0.43-1.29-0.65c-0.04-0.06-0.1-0.16-0.17-0.28
			c-0.1-0.18-0.37-0.64-0.47-0.74c-0.23-0.16-0.27-0.48-0.11-0.7c0.16-0.23,0.49-0.27,0.71-0.11c0.21,0.15,0.41,0.46,0.75,1.05
			c0.04,0.07,0.07,0.13,0.1,0.17c0.08,0.04,0.28,0.13,0.79,0.3l0.11,0.04c0.35,0.13,0.57,0.52,0.83,1.06c0.05,0.1,0.1,0.2,0.13,0.26
			c0.26,0.43,0.04,1.13-0.76,3.04c-0.12,0.29-0.26,0.62-0.28,0.7c-0.02,0.06-0.02,0.16-0.03,0.26c-0.01,0.17-0.02,0.36-0.09,0.55
			c-0.03,0.1-0.1,0.22-0.29,0.53c-0.11,0.18-0.3,0.51-0.34,0.6c0.04,0.07,0.1,0.2,0.12,0.39c0.06,0.56-0.55,1.45-0.89,1.76
			c-0.14,0.24-0.57,1.21-0.72,1.54c-0.06,0.13-0.1,0.23-0.13,0.29c-0.05,0.21-0.19,1.22-0.23,1.61c0.48,0.11,1.6,0.43,1.82,0.85
			c0.32,0.6-0.18,1.05-0.37,1.21c-0.01,0.01-0.02,0.02-0.04,0.03c0,0.17,0.03,0.6,0.05,0.85c0.05,0.59,0.05,0.69-0.04,0.86
			c-0.05,0.09-0.11,0.16-0.17,0.21c0.01,0.72,0.15,3.56,0.27,6.1c0.43,8.87,0.42,8.88,0.22,9.11c-0.2,0.23-0.21,0.24-7.66,0.44
			c-3.43,0.09-7.92,0.2-9.68,0.21c-0.78,0-1.56,0.01-2.35,0.02C27.92,44.49,26.75,44.5,25.58,44.5z"/>
		<path d="M4.31,43.94c-0.08,0-0.17-0.02-0.25-0.06c-0.33-0.18-1.25-2.21-1.28-2.31c-0.14-0.53-0.2-1.19-0.15-1.77
			c0.02-0.27,0.1-0.52,0.17-0.74c0.11-0.34,0.17-0.55,0.1-0.76c-0.01-0.03-0.07-0.14-0.15-0.27c-0.57-1.05-0.7-1.37-0.67-1.64
			c0.02-0.15,0.09-0.36,0.43-1.22c0.26-0.67,0.74-1.91,0.76-2.17c-0.05-0.1-0.16-0.34,0.02-0.67c0.11-0.19,0.27-0.28,0.36-0.33
			c0.4-0.97,1.82-7.92,1.92-8.46c0,0,0-0.12,0-0.34c0.04-2.22,0.09-2.75,0.15-2.96c0.18-0.56,0.66-2.62,0.69-2.86
			c0-0.03,0.02-0.18,0.04-0.39c0.32-2.77,0.35-3.58,0.32-3.76c0-0.01-0.24-1.81-0.23-2c0.02-0.22,0.15-0.39,0.28-0.55
			c0.03-0.04,0.08-0.11,0.11-0.15c-0.03-0.17-0.17-0.56-0.26-0.78C6.48,9.19,6.37,8.91,6.56,8.64C6.58,8.6,6.61,8.57,6.64,8.54
			c0.39-0.34,0.8-0.03,1.11,0.25c0.12-0.04,0.3-0.05,0.61-0.08C8.54,8.7,8.84,8.68,8.97,8.66l0.02-0.01
			c0.33-0.25,0.73-0.51,1.14-0.43c0.41,0.08,0.66,0.46,0.89,0.8c0.05,0.08,0.12,0.18,0.17,0.25c0.54,0.03,1.91,0.26,2.31,0.6
			c0.62,0.53,1.09,3.09,1.08,3.26c0,0.15-0.03,0.27-0.05,0.38c-0.01,0.02-0.01,0.05-0.02,0.07c0.36,0.17,1.38,0.5,1.74,0.62
			c0.17,0.05,0.3,0.1,0.39,0.13c0.25-0.03,0.93-0.34,2.03-0.92c0.24-0.13,0.42-0.22,0.47-0.24c0.19-0.07,3.83,0.03,4.18,0.37
			c0.07,0.06,0.11,0.14,0.17,0.23c0.01,0.01,0.02,0.03,0.03,0.04c0.79-0.34,2.89-1.19,3.46-0.88c0.16,0.09,0.27,0.17,0.35,0.24
			c0.02,0.02,0.03,0.03,0.05,0.04c0,0,0.05,0,0.16-0.02c0.09-0.02,0.96-0.31,1.65-0.54c1.4-0.47,2.09-0.69,2.27-0.72
			c0.05-0.02,0.19-0.16,0.27-0.24c0.19-0.19,0.36-0.36,0.63-0.38c0.21-0.01,0.38,0.08,0.48,0.14c0,0,0,0,0,0
			c0.09-0.02,0.3-0.07,0.45-0.11c0.38-0.09,0.62-0.15,0.78-0.16c0.16-0.01,0.31,0.01,0.45,0.03c0.19,0.02,0.26,0.03,0.36-0.02
			c0.08-0.04,0.17-0.11,0.27-0.19c0.15-0.12,0.32-0.25,0.52-0.33c0.21-0.08,1.12-0.12,7.16-0.25c1.13-0.03,2.21-0.05,3.04-0.07
			c0,0,0.01,0,0.01,0c0.27,0,0.5,0.22,0.51,0.49c0.01,0.28-0.21,0.51-0.49,0.52c-0.83,0.02-1.91,0.05-3.05,0.07
			c-2.76,0.06-6.53,0.14-6.9,0.21c0.01,0-0.1,0.09-0.18,0.15c-0.13,0.11-0.29,0.23-0.47,0.32c-0.37,0.17-0.69,0.13-0.92,0.1
			c-0.09-0.01-0.17-0.02-0.27-0.02c-0.09,0.01-0.4,0.08-0.59,0.13c-0.45,0.11-0.64,0.15-0.78,0.14c-0.11-0.01-0.21-0.04-0.29-0.07
			c0,0-0.01,0.01-0.01,0.01c-0.2,0.2-0.45,0.46-0.79,0.52c-0.17,0.04-1.31,0.41-2.15,0.69c-1.54,0.51-1.73,0.57-1.83,0.58
			c-0.5,0.07-0.72-0.03-0.99-0.24c-0.03-0.03-0.07-0.06-0.13-0.1c-0.5,0.03-2.48,0.8-2.88,0.99c-0.49,0.28-0.87-0.25-1.03-0.49
			c-0.65-0.09-2.87-0.28-3.22-0.22c0,0.01-0.13,0.08-0.3,0.17c-1.8,0.96-2.45,1.17-2.87,0.97c-0.02-0.01-0.16-0.05-0.34-0.11
			c-1.73-0.56-2.1-0.74-2.26-0.96c-0.27-0.35-0.19-0.71-0.14-0.93c0.01-0.06,0.03-0.12,0.03-0.16c-0.04-0.35-0.48-2.2-0.74-2.49
			c-0.21-0.13-1.48-0.37-1.73-0.35c-0.45,0.04-0.7-0.36-0.93-0.71C10.1,9.46,10,9.3,9.92,9.22C9.88,9.26,9.76,9.34,9.6,9.46
			c-0.08,0.06-0.14,0.1-0.21,0.13c-0.16,0.07-0.4,0.09-0.94,0.14c-0.05,0.1-0.15,0.22-0.34,0.3c-0.08,0.03-0.16,0.04-0.23,0.04
			c0.06,0.22,0.1,0.41,0.09,0.57c-0.02,0.27-0.19,0.49-0.33,0.67c-0.02,0.03-0.04,0.06-0.06,0.08c0.03,0.3,0.18,1.5,0.21,1.67
			c0.07,0.38-0.02,1.56-0.31,4.06c-0.02,0.19-0.04,0.32-0.04,0.36c-0.03,0.34-0.56,2.56-0.73,3.09c-0.04,0.17-0.07,1.07-0.1,2.67
			c-0.01,0.26-0.01,0.44-0.01,0.46c-0.01,0.07-1.64,8.45-2.18,9.02c-0.05,0.05-0.1,0.09-0.14,0.12c0.01,0.04,0.01,0.09,0.02,0.14
			c0.02,0.32-0.2,0.95-0.83,2.57c-0.13,0.34-0.29,0.76-0.35,0.93c0.08,0.24,0.41,0.84,0.54,1.08c0.11,0.2,0.19,0.35,0.2,0.4
			c0.2,0.55,0.05,1.03-0.08,1.43c-0.06,0.18-0.11,0.35-0.13,0.5c-0.04,0.46,0.01,1.01,0.12,1.43c0.07,0.24,0.76,1.55,0.92,1.79
			c0.14,0.16,0.17,0.39,0.06,0.58C4.66,43.85,4.49,43.94,4.31,43.94z"/>
	</g>
</g>
</svg>
